<?xml version="1.0" encoding="utf-8"?>
<!-- Generator: Adobe Illustrator 23.1.1, SVG Export Plug-In . SVG Version: 6.00 Build 0)  -->
<svg version="1.1"
	 id="svg8" inkscape:version="1.0 (b51213c273, 2020-08-10)" sodipodi:docname="legend.svg" xmlns:cc="http://creativecommons.org/ns#" xmlns:dc="http://purl.org/dc/elements/1.1/" xmlns:inkscape="http://www.inkscape.org/namespaces/inkscape" xmlns:rdf="http://www.w3.org/1999/02/22-rdf-syntax-ns#" xmlns:sodipodi="http://sodipodi.sourceforge.net/DTD/sodipodi-0.dtd" xmlns:svg="http://www.w3.org/2000/svg"
	 xmlns="http://www.w3.org/2000/svg" xmlns:xlink="http://www.w3.org/1999/xlink" x="0px" y="0px" viewBox="0 0 399.6 286.8"
	 style="enable-background:new 0 0 399.6 286.8;" xml:space="preserve">
<style type="text/css">
	.st0{fill-rule:evenodd;clip-rule:evenodd;fill:#434343;}
</style>
<sodipodi:namedview  bordercolor="#666666" borderopacity="1" gridtolerance="10" guidetolerance="10" id="namedview20" inkscape:current-layer="svg8" inkscape:cx="238.13367" inkscape:cy="213.06163" inkscape:pageopacity="0" inkscape:pageshadow="2" inkscape:window-height="704" inkscape:window-maximized="1" inkscape:window-width="1308" inkscape:window-x="0" inkscape:window-y="27" inkscape:zoom="0.96583942" objecttolerance="10" pagecolor="#ffffff" showgrid="false">
	</sodipodi:namedview>
<g>
	<g transform="translate(2.000000, 0.000000)">
		<path class="st0" d="M200.5,215l80.9-89.9c3.8-4.3,3.8-11.2,0-15.4l-51.7-0.1V18.2C229.7,8.1,221.8,0,212,0h-35.5
			c-9.8,0-17.8,8.1-17.8,18.2v91.3l-53.7-0.1c-3.8,4.2-3.7,11.1,0.1,15.4l81.6,90.1C190.6,219.2,196.7,219.2,200.5,215L200.5,215z"
			/>
		<path class="st0" d="M302.2,268.6c0,10-7.9,18.2-17.7,18.2H104.7c-9.8,0-17.7-8.1-17.7-18.2v-15.2c0-10,7.9-18.2,17.7-18.2h179.9
			c9.7,0,17.7,8.1,17.7,18.2V268.6L302.2,268.6z"/>
	</g>
</g>
</svg>
