<?xml version="1.0" encoding="utf-8"?>
<!-- Generator: Adobe Illustrator 23.1.1, SVG Export Plug-In . SVG Version: 6.00 Build 0)  -->
<svg version="1.1"
	 id="svg8" inkscape:version="1.0 (b51213c273, 2020-08-10)" sodipodi:docname="legend.svg" xmlns:cc="http://creativecommons.org/ns#" xmlns:dc="http://purl.org/dc/elements/1.1/" xmlns:inkscape="http://www.inkscape.org/namespaces/inkscape" xmlns:rdf="http://www.w3.org/1999/02/22-rdf-syntax-ns#" xmlns:sodipodi="http://sodipodi.sourceforge.net/DTD/sodipodi-0.dtd" xmlns:svg="http://www.w3.org/2000/svg"
	 xmlns="http://www.w3.org/2000/svg" xmlns:xlink="http://www.w3.org/1999/xlink" x="0px" y="0px" viewBox="0 0 399.6 286.8"
	 style="enable-background:new 0 0 399.6 286.8;" xml:space="preserve">
<style type="text/css">
	.st0{fill-rule:evenodd;clip-rule:evenodd;fill:#434343;}
</style>
<sodipodi:namedview  bordercolor="#666666" borderopacity="1" gridtolerance="10" guidetolerance="10" id="namedview20" inkscape:current-layer="svg8" inkscape:cx="238.13367" inkscape:cy="213.06163" inkscape:pageopacity="0" inkscape:pageshadow="2" inkscape:window-height="704" inkscape:window-maximized="1" inkscape:window-width="1308" inkscape:window-x="0" inkscape:window-y="27" inkscape:zoom="0.96583942" objecttolerance="10" pagecolor="#ffffff" showgrid="false">
	</sodipodi:namedview>
<g>
	<g transform="translate(0.000000, 2.000000)">
		<path class="st0" d="M330.6,284.8H69c-33.5,0-60.8-28-60.8-62.3V60.3C8.3,25.9,35.6-2,69-2h261.5c33.5,0,60.7,27.9,60.7,62.3
			v162.2C391.3,256.8,364,284.8,330.6,284.8L330.6,284.8z M61.3,21.2c-16.8,0-30.6,14.8-30.6,33v175.9c0,18.2,13.7,33,30.6,33h276.8
			c16.9,0,30.6-14.8,30.6-33V54.2c0-18.2-13.7-33-30.6-33H61.3L61.3,21.2z"/>
		<ellipse class="st0" cx="139.1" cy="80.9" rx="35.4" ry="35.1"/>
		<path class="st0" d="M277.6,70.7l66.3,167.1H56.2l83.5-96.3l74.9,22.7L277.6,70.7z"/>
	</g>
</g>
</svg>
